<svg width="32" height="32" viewBox="0 0 32 32" fill="none" xmlns="http://www.w3.org/2000/svg">
<path d="M4 9.33268C4 8.62544 4.28095 7.94716 4.78105 7.44706C5.28115 6.94697 5.95942 6.66602 6.66667 6.66602H25.3333C26.0406 6.66602 26.7189 6.94697 27.219 7.44706C27.719 7.94716 28 8.62544 28 9.33268V22.666C28 23.3733 27.719 24.0515 27.219 24.5516C26.7189 25.0517 26.0406 25.3327 25.3333 25.3327H6.66667C5.95942 25.3327 5.28115 25.0517 4.78105 24.5516C4.28095 24.0515 4 23.3733 4 22.666V9.33268Z" stroke="#038175" stroke-width="2" stroke-linecap="round" stroke-linejoin="round"/>
<path d="M4 9.33203L16 17.332L28 9.33203" stroke="#038175" stroke-width="2" stroke-linecap="round" stroke-linejoin="round"/>
</svg>
