<svg width="32" height="32" viewBox="0 0 32 32" fill="none" xmlns="http://www.w3.org/2000/svg">
<path d="M11.9989 19.9991L19.9989 11.9991M14.6656 7.99911L15.2829 7.28444C16.5333 6.03421 18.2291 5.33191 19.9974 5.33203C21.7656 5.33216 23.4613 6.0347 24.7116 7.28511C25.9618 8.53551 26.6641 10.2314 26.664 11.9996C26.6638 13.7678 25.9613 15.4635 24.7109 16.7138L23.9989 17.3324M17.3322 23.9991L16.8029 24.7111C15.5379 25.962 13.8306 26.6636 12.0516 26.6636C10.2725 26.6636 8.56522 25.962 7.30022 24.7111C6.6767 24.0946 6.18168 23.3605 5.84383 22.5513C5.50599 21.7421 5.33203 20.874 5.33203 19.9971C5.33203 19.1202 5.50599 18.2521 5.84383 17.4429C6.18168 16.6337 6.6767 15.8996 7.30022 15.2831L7.99889 14.6658" stroke="#038175" stroke-width="2" stroke-linecap="round" stroke-linejoin="round"/>
</svg>
