<svg width="16" height="16" viewBox="0 0 16 16" fill="none" xmlns="http://www.w3.org/2000/svg">
<path d="M6 7.33334C6 7.86378 6.21071 8.37248 6.58579 8.74756C6.96086 9.12263 7.46957 9.33334 8 9.33334C8.53043 9.33334 9.03914 9.12263 9.41421 8.74756C9.78929 8.37248 10 7.86378 10 7.33334C10 6.80291 9.78929 6.2942 9.41421 5.91913C9.03914 5.54406 8.53043 5.33334 8 5.33334C7.46957 5.33334 6.96086 5.54406 6.58579 5.91913C6.21071 6.2942 6 6.80291 6 7.33334Z" stroke="#AFAFB6" stroke-width="1.2" stroke-linecap="round" stroke-linejoin="round"/>
<path d="M11.7717 11.1047L8.94299 13.9333C8.69298 14.1831 8.35405 14.3234 8.00066 14.3234C7.64727 14.3234 7.30834 14.1831 7.05833 13.9333L4.22899 11.1047C3.48314 10.3588 2.97522 9.40847 2.76945 8.37391C2.56369 7.33935 2.66932 6.26701 3.073 5.29249C3.47667 4.31797 4.16026 3.48503 5.03732 2.89901C5.91437 2.31299 6.94551 2.0002 8.00033 2.0002C9.05515 2.0002 10.0863 2.31299 10.9633 2.89901C11.8404 3.48503 12.524 4.31797 12.9277 5.29249C13.3313 6.26701 13.437 7.33935 13.2312 8.37391C13.0254 9.40847 12.5175 10.3588 11.7717 11.1047Z" stroke="#AFAFB6" stroke-width="1.2" stroke-linecap="round" stroke-linejoin="round"/>
</svg>
