<svg width="24" height="24" viewBox="0 0 24 24" fill="none" xmlns="http://www.w3.org/2000/svg">
<path d="M8.99903 14.9998L14.999 8.99982M10.999 5.99982L11.462 5.46382C12.3998 4.52614 13.6717 3.99942 14.9979 3.99951C16.3241 3.99961 17.5959 4.52651 18.5335 5.46432C19.4712 6.40212 19.9979 7.67401 19.9978 9.00017C19.9977 10.3263 19.4708 11.5981 18.533 12.5358L17.999 12.9998M12.999 17.9998L12.602 18.5338C11.653 19.4715 10.3727 19.9974 9.03853 19.9974C7.7044 19.9974 6.42404 19.4715 5.47503 18.5338C5.00715 18.0716 4.63567 17.521 4.38213 16.9141C4.1286 16.3072 3.99805 15.656 3.99805 14.9983C3.99805 14.3406 4.1286 13.6894 4.38213 13.0825C4.63567 12.4756 5.00715 11.9251 5.47503 11.4628L5.99903 10.9998" stroke="#62626A" stroke-width="2" stroke-linecap="round" stroke-linejoin="round"/>
</svg>
