<svg width="32" height="33" viewBox="0 0 32 33" fill="none" xmlns="http://www.w3.org/2000/svg">
<circle cx="16" cy="16.5" r="16" fill="white"/>
<path d="M10.1667 12.333H11C11.442 12.333 11.866 12.1574 12.1785 11.8449C12.4911 11.5323 12.6667 11.1084 12.6667 10.6663C12.6667 10.4453 12.7545 10.2334 12.9107 10.0771C13.067 9.92081 13.279 9.83301 13.5 9.83301H18.5C18.721 9.83301 18.933 9.92081 19.0893 10.0771C19.2455 10.2334 19.3333 10.4453 19.3333 10.6663C19.3333 11.1084 19.5089 11.5323 19.8215 11.8449C20.134 12.1574 20.558 12.333 21 12.333H21.8333C22.2754 12.333 22.6993 12.5086 23.0118 12.8212C23.3244 13.1337 23.5 13.5576 23.5 13.9997V21.4997C23.5 21.9417 23.3244 22.3656 23.0118 22.6782C22.6993 22.9907 22.2754 23.1663 21.8333 23.1663H10.1667C9.72464 23.1663 9.30072 22.9907 8.98816 22.6782C8.67559 22.3656 8.5 21.9417 8.5 21.4997V13.9997C8.5 13.5576 8.67559 13.1337 8.98816 12.8212C9.30072 12.5086 9.72464 12.333 10.1667 12.333Z" stroke="#313135" stroke-width="1.6" stroke-linecap="round" stroke-linejoin="round"/>
<path d="M13.5 17.333C13.5 17.996 13.7634 18.6319 14.2322 19.1008C14.7011 19.5696 15.337 19.833 16 19.833C16.663 19.833 17.2989 19.5696 17.7678 19.1008C18.2366 18.6319 18.5 17.996 18.5 17.333C18.5 16.67 18.2366 16.0341 17.7678 15.5652C17.2989 15.0964 16.663 14.833 16 14.833C15.337 14.833 14.7011 15.0964 14.2322 15.5652C13.7634 16.0341 13.5 16.67 13.5 17.333Z" stroke="#313135" stroke-width="1.6" stroke-linecap="round" stroke-linejoin="round"/>
</svg>
