<svg width="56" height="56" viewBox="0 0 56 56" fill="none" xmlns="http://www.w3.org/2000/svg">
<g filter="url(#filter0_d_657_10274)">
<circle cx="28" cy="24" r="20" fill="white"/>
</g>
<path d="M21 19H22C22.5304 19 23.0391 18.7893 23.4142 18.4142C23.7893 18.0391 24 17.5304 24 17C24 16.7348 24.1054 16.4804 24.2929 16.2929C24.4804 16.1054 24.7348 16 25 16H31C31.2652 16 31.5196 16.1054 31.7071 16.2929C31.8946 16.4804 32 16.7348 32 17C32 17.5304 32.2107 18.0391 32.5858 18.4142C32.9609 18.7893 33.4696 19 34 19H35C35.5304 19 36.0391 19.2107 36.4142 19.5858C36.7893 19.9609 37 20.4696 37 21V30C37 30.5304 36.7893 31.0391 36.4142 31.4142C36.0391 31.7893 35.5304 32 35 32H21C20.4696 32 19.9609 31.7893 19.5858 31.4142C19.2107 31.0391 19 30.5304 19 30V21C19 20.4696 19.2107 19.9609 19.5858 19.5858C19.9609 19.2107 20.4696 19 21 19Z" stroke="#038175" stroke-width="2" stroke-linecap="round" stroke-linejoin="round"/>
<path d="M25 25C25 25.7956 25.3161 26.5587 25.8787 27.1213C26.4413 27.6839 27.2044 28 28 28C28.7956 28 29.5587 27.6839 30.1213 27.1213C30.6839 26.5587 31 25.7956 31 25C31 24.2044 30.6839 23.4413 30.1213 22.8787C29.5587 22.3161 28.7956 22 28 22C27.2044 22 26.4413 22.3161 25.8787 22.8787C25.3161 23.4413 25 24.2044 25 25Z" stroke="#038175" stroke-width="2" stroke-linecap="round" stroke-linejoin="round"/>
<defs>
<filter id="filter0_d_657_10274" x="0" y="0" width="56" height="56" filterUnits="userSpaceOnUse" color-interpolation-filters="sRGB">
<feFlood flood-opacity="0" result="BackgroundImageFix"/>
<feColorMatrix in="SourceAlpha" type="matrix" values="0 0 0 0 0 0 0 0 0 0 0 0 0 0 0 0 0 0 127 0" result="hardAlpha"/>
<feOffset dy="4"/>
<feGaussianBlur stdDeviation="4"/>
<feComposite in2="hardAlpha" operator="out"/>
<feColorMatrix type="matrix" values="0 0 0 0 0 0 0 0 0 0 0 0 0 0 0 0 0 0 0.1 0"/>
<feBlend mode="normal" in2="BackgroundImageFix" result="effect1_dropShadow_657_10274"/>
<feBlend mode="normal" in="SourceGraphic" in2="effect1_dropShadow_657_10274" result="shape"/>
</filter>
</defs>
</svg>
