<svg width="20" height="21" viewBox="0 0 20 21" fill="none" xmlns="http://www.w3.org/2000/svg">
<path d="M3 8H17M3 13H17M2.5 10.5C2.5 11.4849 2.69399 12.4602 3.0709 13.3701C3.44781 14.2801 4.00026 15.1069 4.6967 15.8033C5.39314 16.4997 6.21993 17.0522 7.12987 17.4291C8.03982 17.806 9.01509 18 10 18C10.9849 18 11.9602 17.806 12.8701 17.4291C13.7801 17.0522 14.6069 16.4997 15.3033 15.8033C15.9997 15.1069 16.5522 14.2801 16.9291 13.3701C17.306 12.4602 17.5 11.4849 17.5 10.5C17.5 8.51088 16.7098 6.60322 15.3033 5.1967C13.8968 3.79018 11.9891 3 10 3C8.01088 3 6.10322 3.79018 4.6967 5.1967C3.29018 6.60322 2.5 8.51088 2.5 10.5Z" stroke="#95959D" stroke-width="1.2" stroke-linecap="round" stroke-linejoin="round"/>
<path d="M9.58273 3C8.17885 5.24968 7.43457 7.84822 7.43457 10.5C7.43457 13.1518 8.17885 15.7503 9.58273 18M10.4161 3C11.8199 5.24968 12.5642 7.84822 12.5642 10.5C12.5642 13.1518 11.8199 15.7503 10.4161 18" stroke="#95959D" stroke-width="1.2" stroke-linecap="round" stroke-linejoin="round"/>
</svg>
