<svg width="20" height="21" viewBox="0 0 20 21" fill="none" xmlns="http://www.w3.org/2000/svg">
<path d="M10.4163 18H4.99967C4.55765 18 4.13372 17.8244 3.82116 17.5118C3.5086 17.1993 3.33301 16.7754 3.33301 16.3333V6.33333C3.33301 5.89131 3.5086 5.46738 3.82116 5.15482C4.13372 4.84226 4.55765 4.66667 4.99967 4.66667H14.9997C15.4417 4.66667 15.8656 4.84226 16.1782 5.15482C16.4907 5.46738 16.6663 5.89131 16.6663 6.33333V8.83333M13.333 3V6.33333M6.66634 3V6.33333M3.33301 9.66667H13.333M16.6663 12.1667L18.333 13.8333M18.333 13.8333H15.833C15.4278 13.8333 15.0286 13.9318 14.6699 14.1204C14.3111 14.3089 14.0036 14.5818 13.7738 14.9156C13.544 15.2494 13.3988 15.634 13.3506 16.0364C13.3025 16.4388 13.3529 16.8468 13.4975 17.2254C13.6421 17.604 13.8766 17.9417 14.1807 18.2095C14.4848 18.4774 14.8495 18.6672 15.2433 18.7628C15.6372 18.8584 16.0483 18.8568 16.4414 18.7582C16.8344 18.6595 17.1976 18.4668 17.4997 18.1967M18.333 13.8333L16.6663 15.5" stroke="#95959D" stroke-width="1.2" stroke-linecap="round" stroke-linejoin="round"/>
</svg>
