<svg width="16" height="16" viewBox="0 0 16 16" fill="none" xmlns="http://www.w3.org/2000/svg">
<path d="M7.33398 8.00033C7.33398 8.17714 7.40422 8.34671 7.52925 8.47173C7.65427 8.59675 7.82384 8.66699 8.00065 8.66699C8.17746 8.66699 8.34703 8.59675 8.47206 8.47173C8.59708 8.34671 8.66732 8.17714 8.66732 8.00033C8.66732 7.82351 8.59708 7.65395 8.47206 7.52892C8.34703 7.4039 8.17746 7.33366 8.00065 7.33366C7.82384 7.33366 7.65427 7.4039 7.52925 7.52892C7.40422 7.65395 7.33398 7.82351 7.33398 8.00033ZM7.33398 12.667C7.33398 12.8438 7.40422 13.0134 7.52925 13.1384C7.65427 13.2634 7.82384 13.3337 8.00065 13.3337C8.17746 13.3337 8.34703 13.2634 8.47206 13.1384C8.59708 13.0134 8.66732 12.8438 8.66732 12.667C8.66732 12.4902 8.59708 12.3206 8.47206 12.1956C8.34703 12.0706 8.17746 12.0003 8.00065 12.0003C7.82384 12.0003 7.65427 12.0706 7.52925 12.1956C7.40422 12.3206 7.33398 12.4902 7.33398 12.667ZM7.33398 3.33366C7.33398 3.51047 7.40422 3.68004 7.52925 3.80506C7.65427 3.93009 7.82384 4.00033 8.00065 4.00033C8.17746 4.00033 8.34703 3.93009 8.47206 3.80506C8.59708 3.68004 8.66732 3.51047 8.66732 3.33366C8.66732 3.15685 8.59708 2.98728 8.47206 2.86225C8.34703 2.73723 8.17746 2.66699 8.00065 2.66699C7.82384 2.66699 7.65427 2.73723 7.52925 2.86225C7.40422 2.98728 7.33398 3.15685 7.33398 3.33366Z" fill="#95959D" stroke="#95959D" stroke-linecap="round" stroke-linejoin="round"/>
</svg>
