<svg width="84" height="24" viewBox="0 0 84 24" fill="none" xmlns="http://www.w3.org/2000/svg">
<path d="M42.6641 14.8945H41.3652V10.2871H39.0273V9.23438H41.3652V5.92578H42.6641V14.8945ZM32.4648 12.3379C33.0801 12.1283 33.6178 11.8229 34.0781 11.4219C34.543 11.0163 34.8984 10.5514 35.1445 10.0273C35.3906 9.50326 35.5137 8.96094 35.5137 8.40039V7.92188H32.8613V6.85547H39.4648V7.92188H36.8398V8.40039C36.8353 8.91081 36.9515 9.40983 37.1885 9.89746C37.43 10.3851 37.7741 10.8203 38.2207 11.2031C38.6673 11.5859 39.1914 11.8776 39.793 12.0781L39.123 13.1172C38.4486 12.8802 37.8607 12.5293 37.3594 12.0645C36.8581 11.5996 36.4707 11.0573 36.1973 10.4375C35.9284 11.1211 35.5296 11.7204 35.001 12.2354C34.4769 12.7503 33.8548 13.1354 33.1348 13.3906L32.4648 12.3379ZM34.707 14.0879H36.0059V16.8496H42.9922V17.9023H34.707V14.0879ZM48.1938 9.67188C48.1938 10.3236 48.2918 10.9616 48.4878 11.5859C48.6883 12.2057 48.9823 12.7686 49.3696 13.2744C49.7616 13.7757 50.231 14.1745 50.7778 14.4707L50.0532 15.4277C49.4744 15.1224 48.9777 14.694 48.563 14.1426C48.1483 13.5911 47.827 12.9577 47.5991 12.2422C47.3713 13.0078 47.05 13.6914 46.6353 14.293C46.2251 14.8945 45.7329 15.3685 45.1587 15.7148L44.3931 14.7305C44.9399 14.4115 45.4071 13.9831 45.7944 13.4453C46.1818 12.9076 46.4735 12.3128 46.6694 11.6611C46.87 11.0094 46.9725 10.3464 46.977 9.67188V9.17969H44.7622V8.11328H46.977V6.34961H48.1938V8.11328H50.3677V9.17969H48.1938V9.67188ZM49.561 10.6836H51.3247V6.17188H52.5552V17.5469H51.3247V11.7637H49.561V10.6836ZM53.7993 5.91211H55.0435V18.1621H53.7993V5.91211ZM64.3257 8.1543C64.3302 8.71029 64.451 9.24805 64.688 9.76758C64.925 10.2826 65.2645 10.7406 65.7065 11.1416C66.1531 11.5426 66.6772 11.8503 67.2788 12.0645L66.5679 13.0762C65.9071 12.821 65.3306 12.4518 64.8384 11.9688C64.3462 11.4857 63.9679 10.9251 63.7036 10.2871C63.4347 11.0026 63.0428 11.627 62.5278 12.1602C62.0128 12.6888 61.3999 13.0898 60.689 13.3633L59.9917 12.3379C60.616 12.1146 61.1561 11.791 61.6118 11.3672C62.0721 10.9388 62.423 10.4443 62.6645 9.88379C62.9106 9.31868 63.036 8.72852 63.0405 8.11328V6.66406H64.3257V8.1543ZM62.2202 14.0332H63.5327V16.8496H70.4917V17.9023H62.2202V14.0332ZM66.3354 8.71484H68.9194V5.92578H70.2183V15.0586H68.9194V9.78125H66.3354V8.71484ZM77.375 7.83984H73.834V9.20703H77.2383V10.2051H73.834V11.6953C74.6999 11.6862 75.4267 11.6611 76.0146 11.6201C76.6071 11.5745 77.2064 11.4948 77.8125 11.3809L77.9355 12.4473C77.2793 12.5703 76.6367 12.6546 76.0078 12.7002C75.3834 12.7412 74.6087 12.7617 73.6836 12.7617H73.3828H72.5898V6.78711H77.375V7.83984ZM74.2031 13.9512H82.5293V18.1621H81.2441V15.0039H74.2031V13.9512ZM78.5781 6.14453H79.7949V9.04297H81.2988V5.92578H82.5293V13.3633H81.2988V10.0957H79.7949V13.2676H78.5781V6.14453Z" fill="#95959D"/>
<rect x="0.5" y="0.5" width="23" height="23" rx="7.5" stroke="#62626A"/>
</svg>
