<svg width="20" height="21" viewBox="0 0 20 21" fill="none" xmlns="http://www.w3.org/2000/svg">
<path d="M13.333 3V6.33333M6.66634 3V6.33333M3.33301 9.66667H16.6663M5.83301 12.1667H5.84384M8.34134 12.1667H8.34551M10.8413 12.1667H10.8455M13.3455 12.1667H13.3497M10.8455 14.6667H10.8497M5.84134 14.6667H5.84551M8.34134 14.6667H8.34551M3.33301 6.33333C3.33301 5.89131 3.5086 5.46738 3.82116 5.15482C4.13372 4.84226 4.55765 4.66667 4.99967 4.66667H14.9997C15.4417 4.66667 15.8656 4.84226 16.1782 5.15482C16.4907 5.46738 16.6663 5.89131 16.6663 6.33333V16.3333C16.6663 16.7754 16.4907 17.1993 16.1782 17.5118C15.8656 17.8244 15.4417 18 14.9997 18H4.99967C4.55765 18 4.13372 17.8244 3.82116 17.5118C3.5086 17.1993 3.33301 16.7754 3.33301 16.3333V6.33333Z" stroke="#038175" stroke-width="1.2" stroke-linecap="round" stroke-linejoin="round"/>
</svg>
