<svg width="24" height="25" viewBox="0 0 24 25" fill="none" xmlns="http://www.w3.org/2000/svg">
<path d="M6.00195 21.4844V19.4844C6.00195 18.4235 6.42338 17.4061 7.17353 16.6559C7.92367 15.9058 8.94109 15.4844 10.002 15.4844H12.502M19.003 21.4844C18.4725 21.4844 17.9638 21.2737 17.5887 20.8986C17.2137 20.5235 17.003 20.0148 17.003 19.4844C17.003 18.9539 17.2137 18.4452 17.5887 18.0702C17.9638 17.6951 18.4725 17.4844 19.003 17.4844M19.003 21.4844C19.5334 21.4844 20.0421 21.2737 20.4172 20.8986C20.7922 20.5235 21.003 20.0148 21.003 19.4844C21.003 18.9539 20.7922 18.4452 20.4172 18.0702C20.0421 17.6951 19.5334 17.4844 19.003 17.4844M19.003 21.4844V22.9844M19.003 17.4844V15.9844M22.034 17.7344L20.735 18.4844M17.272 20.4844L15.972 21.2344M15.972 17.7344L17.272 18.4844M20.735 20.4844L22.035 21.2344M8.00195 7.48438C8.00195 8.54524 8.42338 9.56266 9.17353 10.3128C9.92367 11.0629 10.9411 11.4844 12.002 11.4844C13.0628 11.4844 14.0802 11.0629 14.8304 10.3128C15.5805 9.56266 16.002 8.54524 16.002 7.48438C16.002 6.42351 15.5805 5.40609 14.8304 4.65595C14.0802 3.9058 13.0628 3.48438 12.002 3.48438C10.9411 3.48438 9.92367 3.9058 9.17353 4.65595C8.42338 5.40609 8.00195 6.42351 8.00195 7.48438Z" stroke="#313135" stroke-width="2" stroke-linecap="round" stroke-linejoin="round"/>
</svg>
