<svg width="16" height="16" viewBox="0 0 16 16" fill="none" xmlns="http://www.w3.org/2000/svg">
<path d="M6 7.3335C6 7.86393 6.21071 8.37264 6.58579 8.74771C6.96086 9.12278 7.46957 9.3335 8 9.3335C8.53043 9.3335 9.03914 9.12278 9.41421 8.74771C9.78929 8.37264 10 7.86393 10 7.3335C10 6.80306 9.78929 6.29436 9.41421 5.91928C9.03914 5.54421 8.53043 5.3335 8 5.3335C7.46957 5.3335 6.96086 5.54421 6.58579 5.91928C6.21071 6.29436 6 6.80306 6 7.3335Z" stroke="#AFAFB6" stroke-width="1.2" stroke-linecap="round" stroke-linejoin="round"/>
<path d="M11.7717 11.1047L8.94299 13.9334C8.69298 14.1831 8.35405 14.3234 8.00066 14.3234C7.64727 14.3234 7.30834 14.1831 7.05833 13.9334L4.22899 11.1047C3.48314 10.3588 2.97522 9.40852 2.76945 8.37396C2.56369 7.3394 2.66932 6.26706 3.073 5.29254C3.47667 4.31801 4.16026 3.48508 5.03732 2.89905C5.91437 2.31303 6.94551 2.00024 8.00033 2.00024C9.05515 2.00024 10.0863 2.31303 10.9633 2.89905C11.8404 3.48508 12.524 4.31801 12.9277 5.29254C13.3313 6.26706 13.437 7.3394 13.2312 8.37396C13.0254 9.40852 12.5175 10.3588 11.7717 11.1047Z" stroke="#AFAFB6" stroke-width="1.2" stroke-linecap="round" stroke-linejoin="round"/>
</svg>
