<svg width="16" height="17" viewBox="0 0 16 17" fill="none" xmlns="http://www.w3.org/2000/svg">
<path d="M8 5.83341V7.83341M8 9.83341V9.84008M12 3.16675C12.5304 3.16675 13.0391 3.37746 13.4142 3.75253C13.7893 4.12761 14 4.63632 14 5.16675V10.5001C14 11.0305 13.7893 11.5392 13.4142 11.9143C13.0391 12.2894 12.5304 12.5001 12 12.5001H8.66667L5.33333 14.5001V12.5001H4C3.46957 12.5001 2.96086 12.2894 2.58579 11.9143C2.21071 11.5392 2 11.0305 2 10.5001V5.16675C2 4.63632 2.21071 4.12761 2.58579 3.75253C2.96086 3.37746 3.46957 3.16675 4 3.16675H12Z" stroke="#95959D" stroke-width="1.33333" stroke-linecap="round" stroke-linejoin="round"/>
</svg>
